# xmcd
#
# Track frame offsets: 
#        150
#        26702
#        44395
#        66222
#        87697
#        107477
#        122665
#        140587
#        158385
#        179134
#        200700
#        215607
#        241955
#        257747
#        287980
#
# Disc length: 4147 seconds
#
# Revision: 2
# Processed by: cddbd v1.5.2PL0 Copyright (c) Steve Scherf et al.
# Submitted via: ExactAudioCopy v0.99pb5
#
DISCID=e810310f
DTITLE=Jerry Jeff Walker - Night After Night
DYEAR=1995
DGENRE=Country
TTITLE0=Contrary To Ordinary
TTITLE1=Up Against The Wall Redneck Mother
TTITLE2=London Homesick Blues
TTITLE3=Mr. Bojangles
TTITLE4=Sangria Wire
TTITLE5=Got Lucky Last Night
TTITLE6=Trashy Women
TTITLE7=The First Showboat
TTITLE8=Stoney
TTITLE9=L.A. Freeway
TTITLE10=Jaded Love
TTITLE11=Desperados Waiting For The Train
TTITLE12=Re-deo-deo Cowboy
TTITLE13=Don't It Make You Wanna Dance?
TTITLE14=Takin' It As It Comes
EXTD=
EXTT0=
EXTT1=
EXTT2=
EXTT3=
EXTT4=
EXTT5=
EXTT6=
EXTT7=
EXTT8=
EXTT9=
EXTT10=
EXTT11=
EXTT12=
EXTT13=
EXTT14=
PLAYORDER=
